<svg width="443" height="358" viewBox="0 0 443 358" fill="none" xmlns="http://www.w3.org/2000/svg">
<path opacity="0.1" d="M53.2904 41.7354C57.3276 17.6465 78.1778 0 102.603 0H392.285C419.899 0 442.285 22.3858 442.285 50V308C442.285 335.614 419.899 358 392.285 358H59.3624C28.4471 358 4.94011 330.225 10.0502 299.735L53.2904 41.7354Z" fill="#68C9BA"/>
<path d="M410.014 124.03C435.738 153.207 405.363 181.381 351.903 182.141C245.616 175.137 221.631 81.0074 229.664 59.9028C237.697 38.7982 261.615 38.2221 297.054 81.2151C332.493 124.208 377.858 87.5572 410.014 124.03Z" stroke="white" stroke-width="1.5"/>
<ellipse cx="305.634" cy="89.1502" rx="16.8481" ry="9.95569" transform="rotate(20.7184 305.634 89.1502)" stroke="white" stroke-width="1.5"/>
</svg>
