<svg width="443" height="358" viewBox="0 0 443 358" fill="none" xmlns="http://www.w3.org/2000/svg">
<path opacity="0.1" d="M53.2904 41.7354C57.3276 17.6465 78.1778 0 102.603 0H392.285C419.899 0 442.285 22.3858 442.285 50V308C442.285 335.614 419.899 358 392.285 358H59.3624C28.4471 358 4.94011 330.225 10.0502 299.735L53.2904 41.7354Z" fill="#2D9CDB"/>
<ellipse cx="382.674" cy="313.031" rx="30.9248" ry="18.2737" transform="rotate(20.7184 382.674 313.031)" stroke="white" stroke-width="1.5"/>
<path d="M108.726 254.711C48.1914 266.917 33.5671 202.793 74.9576 128.69C168.954 -11.8782 317.406 29.8639 340.045 57.6597C362.685 85.4555 344.491 118.797 257.252 133.393C170.014 147.99 184.393 239.452 108.726 254.711Z" stroke="white" stroke-width="1.5"/>
</svg>
